<svg width="95" height="16" viewBox="0 0 95 16" fill="none" xmlns="http://www.w3.org/2000/svg">
<path d="M28.4987 12.9686H27.5747V4.38863H30.8987C31.4667 4.38863 31.9587 4.48863 32.3747 4.68863C32.7987 4.88863 33.1267 5.16863 33.3587 5.52863C33.5987 5.88863 33.7187 6.30863 33.7187 6.78863C33.7187 7.26863 33.5987 7.68863 33.3587 8.04863C33.1267 8.40863 32.7987 8.68863 32.3747 8.88863C31.9587 9.08863 31.4667 9.18863 30.8987 9.18863H28.4987V12.9686ZM30.8987 5.20463H28.4987V8.37263H30.8987C31.4827 8.37263 31.9387 8.23263 32.2667 7.95263C32.6027 7.67263 32.7707 7.28463 32.7707 6.78863C32.7707 6.29263 32.6027 5.90463 32.2667 5.62463C31.9387 5.34463 31.4827 5.20463 30.8987 5.20463ZM38.2853 6.96863V7.83263H38.0453C37.6933 7.83263 37.3613 7.92463 37.0493 8.10863C36.7373 8.29263 36.4853 8.58063 36.2933 8.97263C36.1013 9.36463 36.0053 9.87263 36.0053 10.4966V12.9686H35.1173V7.06463H35.9933V8.39663C36.2013 7.87663 36.5053 7.50863 36.9053 7.29263C37.3053 7.07663 37.7213 6.96863 38.1533 6.96863H38.2853ZM42.0981 13.1606C41.4981 13.1606 40.9621 13.0246 40.4901 12.7526C40.0181 12.4806 39.6461 12.1086 39.3741 11.6366C39.1101 11.1646 38.9781 10.6246 38.9781 10.0166C38.9781 9.40863 39.1101 8.86863 39.3741 8.39663C39.6461 7.92463 40.0181 7.55263 40.4901 7.28063C40.9621 7.00863 41.4981 6.87263 42.0981 6.87263C42.7061 6.87263 43.2421 7.00863 43.7061 7.28063C44.1781 7.55263 44.5461 7.92463 44.8101 8.39663C45.0821 8.86863 45.2181 9.40863 45.2181 10.0166C45.2181 10.6246 45.0821 11.1646 44.8101 11.6366C44.5461 12.1086 44.1781 12.4806 43.7061 12.7526C43.2421 13.0246 42.7061 13.1606 42.0981 13.1606ZM42.0981 12.3806C42.5301 12.3806 42.9101 12.2806 43.2381 12.0806C43.5661 11.8806 43.8221 11.6046 44.0061 11.2526C44.1901 10.8926 44.2821 10.4806 44.2821 10.0166C44.2821 9.55263 44.1901 9.14463 44.0061 8.79263C43.8221 8.43263 43.5661 8.15263 43.2381 7.95263C42.9101 7.75263 42.5301 7.65263 42.0981 7.65263C41.6661 7.65263 41.2861 7.75263 40.9581 7.95263C40.6301 8.15263 40.3741 8.43263 40.1901 8.79263C40.0061 9.14463 39.9141 9.55263 39.9141 10.0166C39.9141 10.4806 40.0061 10.8926 40.1901 11.2526C40.3741 11.6046 40.6301 11.8806 40.9581 12.0806C41.2861 12.2806 41.6661 12.3806 42.0981 12.3806ZM49.8348 12.9686H48.4428C48.0268 12.9686 47.7028 12.8566 47.4708 12.6326C47.2468 12.4006 47.1348 12.0766 47.1348 11.6606V7.82063H45.9108V7.06463H47.1348V5.33663H48.0228V7.06463H49.7508V7.82063H48.0228V11.5886C48.0228 11.9966 48.2268 12.2006 48.6348 12.2006H49.8348V12.9686ZM53.8168 13.1606C53.2168 13.1606 52.6808 13.0246 52.2088 12.7526C51.7368 12.4806 51.3648 12.1086 51.0928 11.6366C50.8288 11.1646 50.6968 10.6246 50.6968 10.0166C50.6968 9.40863 50.8288 8.86863 51.0928 8.39663C51.3648 7.92463 51.7368 7.55263 52.2088 7.28063C52.6808 7.00863 53.2168 6.87263 53.8168 6.87263C54.4248 6.87263 54.9608 7.00863 55.4248 7.28063C55.8968 7.55263 56.2648 7.92463 56.5288 8.39663C56.8008 8.86863 56.9368 9.40863 56.9368 10.0166C56.9368 10.6246 56.8008 11.1646 56.5288 11.6366C56.2648 12.1086 55.8968 12.4806 55.4248 12.7526C54.9608 13.0246 54.4248 13.1606 53.8168 13.1606ZM53.8168 12.3806C54.2488 12.3806 54.6288 12.2806 54.9568 12.0806C55.2848 11.8806 55.5408 11.6046 55.7248 11.2526C55.9088 10.8926 56.0008 10.4806 56.0008 10.0166C56.0008 9.55263 55.9088 9.14463 55.7248 8.79263C55.5408 8.43263 55.2848 8.15263 54.9568 7.95263C54.6288 7.75263 54.2488 7.65263 53.8168 7.65263C53.3848 7.65263 53.0048 7.75263 52.6768 7.95263C52.3488 8.15263 52.0928 8.43263 51.9088 8.79263C51.7248 9.14463 51.6328 9.55263 51.6328 10.0166C51.6328 10.4806 51.7248 10.8926 51.9088 11.2526C52.0928 11.6046 52.3488 11.8806 52.6768 12.0806C53.0048 12.2806 53.3848 12.3806 53.8168 12.3806ZM61.5535 12.9686H60.1615C59.7455 12.9686 59.4215 12.8566 59.1895 12.6326C58.9655 12.4006 58.8535 12.0766 58.8535 11.6606V7.82063H57.6295V7.06463H58.8535V5.33663H59.7415V7.06463H61.4695V7.82063H59.7415V11.5886C59.7415 11.9966 59.9455 12.2006 60.3535 12.2006H61.5535V12.9686ZM67.2608 7.06463H68.1728L65.1728 14.0366C65.0048 14.4286 64.7968 14.7366 64.5488 14.9606C64.3008 15.1846 63.9248 15.2966 63.4208 15.2966H62.8328V14.5286H63.4208C63.6768 14.5286 63.8848 14.4646 64.0448 14.3366C64.2128 14.2086 64.3488 14.0206 64.4528 13.7726L64.7648 12.9926L62.2088 7.06463H63.1688L65.2088 12.0326L67.2608 7.06463ZM70.1421 15.2966H69.2541V7.06463H70.1301V8.20463C70.3381 7.79663 70.6541 7.47263 71.0781 7.23263C71.5021 6.99263 71.9701 6.87263 72.4821 6.87263C73.0581 6.87263 73.5701 7.01263 74.0181 7.29263C74.4661 7.56463 74.8141 7.93663 75.0621 8.40863C75.3181 8.88063 75.4461 9.41663 75.4461 10.0166C75.4461 10.6246 75.3141 11.1646 75.0501 11.6366C74.7941 12.1086 74.4341 12.4806 73.9701 12.7526C73.5141 13.0246 72.9901 13.1606 72.3981 13.1606C71.8861 13.1606 71.4341 13.0606 71.0421 12.8606C70.6501 12.6606 70.3501 12.3886 70.1421 12.0446V15.2966ZM70.1421 10.1966V10.9646C70.2941 11.3886 70.5661 11.7326 70.9581 11.9966C71.3501 12.2526 71.7981 12.3806 72.3021 12.3806C72.7421 12.3806 73.1261 12.2806 73.4541 12.0806C73.7821 11.8726 74.0381 11.5926 74.2221 11.2406C74.4141 10.8806 74.5101 10.4726 74.5101 10.0166C74.5101 9.56063 74.4181 9.15663 74.2341 8.80463C74.0581 8.44463 73.8101 8.16463 73.4901 7.96463C73.1701 7.75663 72.7981 7.65263 72.3741 7.65263C71.9421 7.65263 71.5581 7.76063 71.2221 7.97663C70.8861 8.19263 70.6221 8.49263 70.4301 8.87663C70.2381 9.25263 70.1421 9.69263 70.1421 10.1966ZM81.8398 11.2886L82.4638 11.8766C82.1518 12.2766 81.7758 12.5926 81.3358 12.8246C80.8958 13.0486 80.3918 13.1606 79.8238 13.1606C79.1998 13.1606 78.6398 13.0246 78.1438 12.7526C77.6558 12.4806 77.2718 12.1086 76.9918 11.6366C76.7118 11.1646 76.5718 10.6246 76.5718 10.0166C76.5718 9.40863 76.7038 8.86863 76.9678 8.39663C77.2398 7.92463 77.6118 7.55263 78.0838 7.28063C78.5558 7.00863 79.0918 6.87263 79.6918 6.87263C80.2678 6.87263 80.7758 7.00863 81.2158 7.28063C81.6638 7.54463 82.0158 7.90863 82.2718 8.37263C82.5278 8.83663 82.6558 9.37263 82.6558 9.98063V10.3286H77.5198C77.5918 10.9446 77.8358 11.4406 78.2518 11.8166C78.6758 12.1926 79.2038 12.3806 79.8358 12.3806C80.6678 12.3806 81.3358 12.0166 81.8398 11.2886ZM79.6918 7.65263C79.1078 7.65263 78.6198 7.83263 78.2278 8.19263C77.8438 8.54463 77.6118 9.01263 77.5318 9.59663H81.7198C81.6478 9.01263 81.4238 8.54463 81.0478 8.19263C80.6718 7.83263 80.2198 7.65263 79.6918 7.65263ZM87.2228 6.96863V7.83263H86.9828C86.6308 7.83263 86.2988 7.92463 85.9868 8.10863C85.6748 8.29263 85.4228 8.58063 85.2308 8.97263C85.0388 9.36463 84.9428 9.87263 84.9428 10.4966V12.9686H84.0548V7.06463H84.9308V8.39663C85.1388 7.87663 85.4428 7.50863 85.8428 7.29263C86.2428 7.07663 86.6588 6.96863 87.0908 6.96863H87.2228ZM87.9219 12.0566L88.5459 11.4566C88.8259 11.7526 89.1419 11.9846 89.4939 12.1526C89.8459 12.3206 90.2419 12.4046 90.6819 12.4046C91.1619 12.4046 91.5539 12.3046 91.8579 12.1046C92.1699 11.8966 92.3259 11.6326 92.3259 11.3126C92.3259 11.0326 92.1939 10.8166 91.9299 10.6646C91.6739 10.5046 91.2379 10.3806 90.6219 10.2926C89.7259 10.1646 89.0939 9.97263 88.7259 9.71663C88.3659 9.45263 88.1859 9.10063 88.1859 8.66063C88.1859 8.30063 88.2899 7.98863 88.4979 7.72463C88.7059 7.45263 88.9939 7.24463 89.3619 7.10063C89.7299 6.94863 90.1499 6.87263 90.6219 6.87263C91.1499 6.87263 91.6219 6.96863 92.0379 7.16063C92.4539 7.35263 92.8219 7.62463 93.1419 7.97663L92.5179 8.57663C92.2779 8.28063 92.0019 8.04863 91.6899 7.88063C91.3779 7.71263 91.0219 7.62863 90.6219 7.62863C90.1819 7.62863 89.8179 7.72063 89.5299 7.90463C89.2419 8.08863 89.0979 8.33263 89.0979 8.63663C89.0979 8.86063 89.2179 9.04063 89.4579 9.17663C89.7059 9.30463 90.1219 9.40863 90.7059 9.48863C91.6339 9.61663 92.2859 9.82463 92.6619 10.1126C93.0459 10.3926 93.2379 10.7846 93.2379 11.2886C93.2379 11.6566 93.1259 11.9846 92.9019 12.2726C92.6859 12.5526 92.3859 12.7726 92.0019 12.9326C91.6179 13.0846 91.1779 13.1606 90.6819 13.1606C90.1059 13.1606 89.5899 13.0646 89.1339 12.8726C88.6859 12.6726 88.2819 12.4006 87.9219 12.0566Z" fill="white"/>
<path fill-rule="evenodd" clip-rule="evenodd" d="M0.423828 4.39951C1.4315 4.30366 2.07577 4.72697 2.3247 5.66276C2.68677 7.01919 3.02887 8.37829 3.38029 9.73738C3.40958 9.85053 3.44552 9.96101 3.52539 10.0742C3.66383 9.55235 3.8036 9.03055 3.94203 8.50874C4.1417 7.75265 4.33738 6.99523 4.54504 6.24181C4.60095 6.03681 4.68747 5.84246 4.76601 5.64545C5.18133 4.61648 6.40065 4.63778 7.02229 5.00518C7.45891 5.26342 7.62397 5.73597 7.75043 6.19788C8.07789 7.38526 8.38272 8.58062 8.69554 9.77199C8.72216 9.86783 8.75411 9.96501 8.83398 10.0622C8.97108 9.53771 9.11085 9.01457 9.24663 8.48877C9.49023 7.55032 9.73117 6.61186 9.97343 5.67341C10.2117 4.75093 10.8759 4.29701 11.8756 4.4035C11.8304 4.59785 11.7931 4.79352 11.7412 4.98388C11.0943 7.43318 10.4447 9.88248 9.79639 12.3304C9.77243 12.421 9.73516 12.5101 9.72717 12.602C9.70454 12.8948 9.54614 12.976 9.26793 12.9681C8.6383 12.9481 7.92348 12.6712 7.7065 11.8885C7.46423 11.0126 7.23395 10.1341 7.00765 9.25285C6.81064 8.48611 6.63493 7.71671 6.43393 6.9513C6.39266 6.79423 6.39 6.55462 6.14241 6.56394C5.92011 6.57326 5.91478 6.79024 5.87485 6.94731C5.51411 8.39027 5.16136 9.83589 4.80062 11.2788C4.74338 11.5091 4.65952 11.7341 4.57965 11.9577C4.30011 12.7338 3.54802 13.0067 2.8891 12.9601C2.74134 12.9494 2.65881 12.8962 2.61888 12.7471C1.89873 10.0089 1.17592 7.27211 0.453113 4.53661C0.442464 4.49535 0.435808 4.45541 0.423828 4.39951" fill="#2C2B36"/>
<path fill-rule="evenodd" clip-rule="evenodd" d="M22.4676 12.9333C21.5158 13.0438 20.7398 12.8455 20.1887 12.0521C19.7467 11.4158 19.2915 10.7889 18.8455 10.1552C18.6565 9.88634 18.5194 9.88767 18.3291 10.1552C17.8365 10.8514 17.3493 11.5489 16.8409 12.2318C16.3124 12.9426 15.5576 13.0119 14.707 12.9347C14.7749 12.8268 14.8215 12.7523 14.8708 12.6804C15.7214 11.4145 16.5693 10.1486 17.4266 8.88932C17.5317 8.73624 17.5224 8.63241 17.4239 8.48598C16.568 7.22406 15.72 5.95948 14.8694 4.69489C14.8175 4.61768 14.7696 4.53915 14.7177 4.45928C15.2022 4.26493 16.2551 4.42201 16.576 4.85862C17.1577 5.64399 17.746 6.42537 18.3237 7.21474C18.5221 7.48629 18.6565 7.48496 18.8589 7.20675C19.402 6.45732 19.9517 5.70922 20.5028 4.96511C20.8196 4.53515 21.2829 4.41402 21.782 4.3834C21.9977 4.37009 22.216 4.38074 22.4902 4.38074C22.4183 4.50587 22.389 4.56311 22.3544 4.61635C21.4919 5.9049 20.6333 7.19344 19.7627 8.47666C19.6562 8.63507 19.6549 8.74156 19.7627 8.9013C20.6053 10.1393 21.4373 11.3865 22.2719 12.6298C22.3305 12.719 22.3877 12.8095 22.4676 12.9333" fill="#2C2B36"/>
<path fill-rule="evenodd" clip-rule="evenodd" d="M13.9595 5.91101C13.9595 5.92299 13.9675 5.96159 13.9675 6.00153C13.9648 7.91704 13.9595 9.83122 13.9581 11.7481C13.9581 12.6626 13.4017 12.9554 12.631 12.9607C12.4686 12.9621 12.4313 12.8942 12.4327 12.7464C12.4353 10.8815 12.434 9.01789 12.434 7.1543C12.434 6.87209 12.5564 6.6671 12.8054 6.53398C13.1847 6.33165 13.5628 6.12532 13.9595 5.91101" fill="#2C2B36"/>
<path fill-rule="evenodd" clip-rule="evenodd" d="M13.9503 4.40174C14.0528 5.15251 13.7187 5.61308 13.0438 5.86866C12.8414 5.94454 12.6564 6.067 12.4634 6.16817C12.3968 4.95151 12.7429 4.33785 13.9503 4.40174" fill="#2C2B36"/>
<path fill-rule="evenodd" clip-rule="evenodd" d="M0.423828 4.39951C1.4315 4.30366 2.07577 4.72697 2.3247 5.66276C2.68677 7.01919 3.02887 8.37829 3.38029 9.73738C3.40958 9.85053 3.44552 9.96101 3.52539 10.0742C3.66383 9.55235 3.8036 9.03055 3.94203 8.50874C4.1417 7.75265 4.33738 6.99523 4.54504 6.24181C4.60095 6.03681 4.68747 5.84246 4.76601 5.64545C5.18133 4.61648 6.40065 4.63778 7.02229 5.00518C7.45891 5.26342 7.62397 5.73597 7.75043 6.19788C8.07789 7.38526 8.38272 8.58062 8.69554 9.77199C8.72216 9.86783 8.75411 9.96501 8.83398 10.0622C8.97108 9.53771 9.11085 9.01457 9.24663 8.48877C9.49023 7.55032 9.73117 6.61186 9.97343 5.67341C10.2117 4.75093 10.8759 4.29701 11.8756 4.4035C11.8304 4.59785 11.7931 4.79352 11.7412 4.98388C11.0943 7.43318 10.4447 9.88248 9.79639 12.3304C9.77243 12.421 9.73516 12.5101 9.72717 12.602C9.70454 12.8948 9.54614 12.976 9.26793 12.9681C8.6383 12.9481 7.92348 12.6712 7.7065 11.8885C7.46423 11.0126 7.23395 10.1341 7.00765 9.25285C6.81064 8.48611 6.63493 7.71671 6.43393 6.9513C6.39266 6.79423 6.39 6.55462 6.14241 6.56394C5.92011 6.57326 5.91478 6.79024 5.87485 6.94731C5.51411 8.39027 5.16136 9.83589 4.80062 11.2788C4.74338 11.5091 4.65952 11.7341 4.57965 11.9577C4.30011 12.7338 3.54802 13.0067 2.8891 12.9601C2.74134 12.9494 2.65881 12.8962 2.61888 12.7471C1.89873 10.0089 1.17592 7.27211 0.453113 4.53661C0.442464 4.49535 0.435808 4.45541 0.423828 4.39951" fill="white"/>
<path fill-rule="evenodd" clip-rule="evenodd" d="M22.4676 12.9333C21.5158 13.0438 20.7398 12.8455 20.1887 12.0521C19.7467 11.4158 19.2915 10.7889 18.8455 10.1552C18.6565 9.88634 18.5194 9.88767 18.3291 10.1552C17.8365 10.8514 17.3493 11.5489 16.8409 12.2318C16.3124 12.9426 15.5576 13.0119 14.707 12.9347C14.7749 12.8268 14.8215 12.7523 14.8708 12.6804C15.7214 11.4145 16.5693 10.1486 17.4266 8.88932C17.5317 8.73624 17.5224 8.63241 17.4239 8.48598C16.568 7.22406 15.72 5.95948 14.8694 4.69489C14.8175 4.61768 14.7696 4.53915 14.7177 4.45928C15.2022 4.26493 16.2551 4.42201 16.576 4.85862C17.1577 5.64399 17.746 6.42537 18.3237 7.21474C18.5221 7.48629 18.6565 7.48496 18.8589 7.20675C19.402 6.45732 19.9517 5.70922 20.5028 4.96511C20.8196 4.53515 21.2829 4.41402 21.782 4.3834C21.9977 4.37009 22.216 4.38074 22.4902 4.38074C22.4183 4.50587 22.389 4.56311 22.3544 4.61635C21.4919 5.9049 20.6333 7.19344 19.7627 8.47666C19.6562 8.63507 19.6549 8.74156 19.7627 8.9013C20.6053 10.1393 21.4373 11.3865 22.2719 12.6298C22.3305 12.719 22.3877 12.8095 22.4676 12.9333" fill="white"/>
<path fill-rule="evenodd" clip-rule="evenodd" d="M13.9595 5.91101C13.9595 5.92299 13.9675 5.96159 13.9675 6.00153C13.9648 7.91704 13.9595 9.83122 13.9581 11.7481C13.9581 12.6626 13.4017 12.9554 12.631 12.9607C12.4686 12.9621 12.4313 12.8942 12.4327 12.7464C12.4353 10.8815 12.434 9.01789 12.434 7.1543C12.434 6.87209 12.5564 6.6671 12.8054 6.53398C13.1847 6.33165 13.5628 6.12532 13.9595 5.91101" fill="white"/>
<path fill-rule="evenodd" clip-rule="evenodd" d="M13.9503 4.40174C14.0528 5.15251 13.7187 5.61308 13.0438 5.86866C12.8414 5.94454 12.6564 6.067 12.4634 6.16817C12.3968 4.95151 12.7429 4.33785 13.9503 4.40174" fill="white"/>
</svg>
