<svg width="109" height="14" viewBox="0 0 109 14" fill="none" xmlns="http://www.w3.org/2000/svg">
<path d="M33.1302 10.9687H32.0522V0.95874H35.9302C36.5929 0.95874 37.1669 1.07541 37.6522 1.30874C38.1469 1.54207 38.5296 1.86874 38.8002 2.28874C39.0802 2.70874 39.2202 3.19874 39.2202 3.75874C39.2202 4.31874 39.0802 4.80874 38.8002 5.22874C38.5296 5.64874 38.1469 5.97541 37.6522 6.20874C37.1669 6.44207 36.5929 6.55874 35.9302 6.55874H33.1302V10.9687ZM35.9302 1.91074H33.1302V5.60674H35.9302C36.6116 5.60674 37.1436 5.44341 37.5262 5.11674C37.9182 4.79007 38.1142 4.33741 38.1142 3.75874C38.1142 3.18007 37.9182 2.72741 37.5262 2.40074C37.1436 2.07407 36.6116 1.91074 35.9302 1.91074Z" fill="white"/>
<path d="M44.548 3.96874V4.97674H44.268C43.8573 4.97674 43.47 5.08407 43.106 5.29874C42.742 5.51341 42.448 5.84941 42.224 6.30674C42 6.76407 41.888 7.35674 41.888 8.08474V10.9687H40.852V4.08074H41.874V5.63474C42.1167 5.02807 42.4713 4.59874 42.938 4.34674C43.4047 4.09474 43.89 3.96874 44.394 3.96874H44.548Z" fill="white"/>
<path d="M48.9962 11.1927C48.2962 11.1927 47.6709 11.0341 47.1202 10.7167C46.5695 10.3994 46.1355 9.96541 45.8182 9.41474C45.5102 8.86407 45.3562 8.23407 45.3562 7.52474C45.3562 6.81541 45.5102 6.18541 45.8182 5.63474C46.1355 5.08407 46.5695 4.65007 47.1202 4.33274C47.6709 4.01541 48.2962 3.85674 48.9962 3.85674C49.7055 3.85674 50.3308 4.01541 50.8722 4.33274C51.4228 4.65007 51.8522 5.08407 52.1602 5.63474C52.4775 6.18541 52.6362 6.81541 52.6362 7.52474C52.6362 8.23407 52.4775 8.86407 52.1602 9.41474C51.8522 9.96541 51.4228 10.3994 50.8722 10.7167C50.3308 11.0341 49.7055 11.1927 48.9962 11.1927ZM48.9962 10.2827C49.5002 10.2827 49.9435 10.1661 50.3262 9.93274C50.7089 9.69941 51.0075 9.37741 51.2222 8.96674C51.4368 8.54674 51.5442 8.06607 51.5442 7.52474C51.5442 6.98341 51.4368 6.50741 51.2222 6.09674C51.0075 5.67674 50.7089 5.35007 50.3262 5.11674C49.9435 4.88341 49.5002 4.76674 48.9962 4.76674C48.4922 4.76674 48.0489 4.88341 47.6662 5.11674C47.2835 5.35007 46.9849 5.67674 46.7702 6.09674C46.5555 6.50741 46.4482 6.98341 46.4482 7.52474C46.4482 8.06607 46.5555 8.54674 46.7702 8.96674C46.9849 9.37741 47.2835 9.69941 47.6662 9.93274C48.0489 10.1661 48.4922 10.2827 48.9962 10.2827Z" fill="white"/>
<path d="M58.0224 10.9687H56.3984C55.913 10.9687 55.535 10.8381 55.2644 10.5767C55.003 10.3061 54.8724 9.92807 54.8724 9.44274V4.96274H53.4444V4.08074H54.8724V2.06474H55.9084V4.08074H57.9244V4.96274H55.9084V9.35874C55.9084 9.83474 56.1464 10.0727 56.6224 10.0727H58.0224V10.9687Z" fill="white"/>
<path d="M62.6681 11.1927C61.9681 11.1927 61.3427 11.0341 60.7921 10.7167C60.2414 10.3994 59.8074 9.96541 59.4901 9.41474C59.1821 8.86407 59.0281 8.23407 59.0281 7.52474C59.0281 6.81541 59.1821 6.18541 59.4901 5.63474C59.8074 5.08407 60.2414 4.65007 60.7921 4.33274C61.3427 4.01541 61.9681 3.85674 62.6681 3.85674C63.3774 3.85674 64.0027 4.01541 64.5441 4.33274C65.0947 4.65007 65.5241 5.08407 65.8321 5.63474C66.1494 6.18541 66.3081 6.81541 66.3081 7.52474C66.3081 8.23407 66.1494 8.86407 65.8321 9.41474C65.5241 9.96541 65.0947 10.3994 64.5441 10.7167C64.0027 11.0341 63.3774 11.1927 62.6681 11.1927ZM62.6681 10.2827C63.1721 10.2827 63.6154 10.1661 63.9981 9.93274C64.3807 9.69941 64.6794 9.37741 64.8941 8.96674C65.1087 8.54674 65.2161 8.06607 65.2161 7.52474C65.2161 6.98341 65.1087 6.50741 64.8941 6.09674C64.6794 5.67674 64.3807 5.35007 63.9981 5.11674C63.6154 4.88341 63.1721 4.76674 62.6681 4.76674C62.1641 4.76674 61.7207 4.88341 61.3381 5.11674C60.9554 5.35007 60.6567 5.67674 60.4421 6.09674C60.2274 6.50741 60.1201 6.98341 60.1201 7.52474C60.1201 8.06607 60.2274 8.54674 60.4421 8.96674C60.6567 9.37741 60.9554 9.69941 61.3381 9.93274C61.7207 10.1661 62.1641 10.2827 62.6681 10.2827Z" fill="white"/>
<path d="M71.6942 10.9687H70.0702C69.5849 10.9687 69.2069 10.8381 68.9362 10.5767C68.6749 10.3061 68.5442 9.92807 68.5442 9.44274V4.96274H67.1162V4.08074H68.5442V2.06474H69.5802V4.08074H71.5962V4.96274H69.5802V9.35874C69.5802 9.83474 69.8182 10.0727 70.2942 10.0727H71.6942V10.9687Z" fill="white"/>
<path d="M78.3527 4.08074H79.4167L75.9167 12.2147C75.7207 12.6721 75.478 13.0314 75.1887 13.2927C74.8993 13.5541 74.4607 13.6847 73.8727 13.6847H73.1867V12.7887H73.8727C74.1713 12.7887 74.414 12.7141 74.6007 12.5647C74.7967 12.4154 74.9553 12.1961 75.0767 11.9067L75.4407 10.9967L72.4587 4.08074H73.5787L75.9587 9.87674L78.3527 4.08074Z" fill="white"/>
<path d="M81.7142 13.6847H80.6782V4.08074H81.7002V5.41074C81.9429 4.93474 82.3115 4.55674 82.8062 4.27674C83.3009 3.99674 83.8468 3.85674 84.4442 3.85674C85.1162 3.85674 85.7135 4.02007 86.2362 4.34674C86.7589 4.66407 87.1649 5.09807 87.4542 5.64874C87.7529 6.19941 87.9022 6.82474 87.9022 7.52474C87.9022 8.23407 87.7482 8.86407 87.4402 9.41474C87.1415 9.96541 86.7215 10.3994 86.1802 10.7167C85.6482 11.0341 85.0369 11.1927 84.3462 11.1927C83.7489 11.1927 83.2215 11.0761 82.7642 10.8427C82.3069 10.6094 81.9569 10.2921 81.7142 9.89074V13.6847ZM81.7142 7.73474V8.63074C81.8915 9.12541 82.2089 9.52674 82.6662 9.83474C83.1235 10.1334 83.6462 10.2827 84.2342 10.2827C84.7475 10.2827 85.1955 10.1661 85.5782 9.93274C85.9609 9.69007 86.2595 9.36341 86.4742 8.95274C86.6982 8.53274 86.8102 8.05674 86.8102 7.52474C86.8102 6.99274 86.7029 6.52141 86.4882 6.11074C86.2829 5.69074 85.9935 5.36407 85.6202 5.13074C85.2469 4.88807 84.8129 4.76674 84.3182 4.76674C83.8142 4.76674 83.3662 4.89274 82.9742 5.14474C82.5822 5.39674 82.2742 5.74674 82.0502 6.19474C81.8262 6.63341 81.7142 7.14674 81.7142 7.73474Z" fill="white"/>
<path d="M95.3616 9.00874L96.0896 9.69474C95.7256 10.1614 95.2869 10.5301 94.7736 10.8007C94.2602 11.0621 93.6722 11.1927 93.0096 11.1927C92.2816 11.1927 91.6282 11.0341 91.0496 10.7167C90.4802 10.3994 90.0322 9.96541 89.7056 9.41474C89.3789 8.86407 89.2156 8.23407 89.2156 7.52474C89.2156 6.81541 89.3696 6.18541 89.6776 5.63474C89.9949 5.08407 90.4289 4.65007 90.9796 4.33274C91.5302 4.01541 92.1556 3.85674 92.8556 3.85674C93.5276 3.85674 94.1202 4.01541 94.6336 4.33274C95.1562 4.64074 95.5669 5.06541 95.8656 5.60674C96.1642 6.14807 96.3136 6.77341 96.3136 7.48274V7.88874H90.3216C90.4056 8.60741 90.6902 9.18607 91.1756 9.62474C91.6702 10.0634 92.2862 10.2827 93.0236 10.2827C93.9942 10.2827 94.7736 9.85807 95.3616 9.00874ZM92.8556 4.76674C92.1742 4.76674 91.6049 4.97674 91.1476 5.39674C90.6996 5.80741 90.4289 6.35341 90.3356 7.03474H95.2216C95.1376 6.35341 94.8762 5.80741 94.4376 5.39674C93.9989 4.97674 93.4716 4.76674 92.8556 4.76674Z" fill="white"/>
<path d="M101.642 3.96874V4.97674H101.362C100.951 4.97674 100.564 5.08407 100.2 5.29874C99.8358 5.51341 99.5418 5.84941 99.3178 6.30674C99.0938 6.76407 98.9818 7.35674 98.9818 8.08474V10.9687H97.9458V4.08074H98.9678V5.63474C99.2104 5.02807 99.5651 4.59874 100.032 4.34674C100.498 4.09474 100.984 3.96874 101.488 3.96874H101.642Z" fill="white"/>
<path d="M102.457 9.90474L103.185 9.20474C103.512 9.55007 103.881 9.82074 104.291 10.0167C104.702 10.2127 105.164 10.3107 105.677 10.3107C106.237 10.3107 106.695 10.1941 107.049 9.96074C107.413 9.71807 107.595 9.41007 107.595 9.03674C107.595 8.71007 107.441 8.45807 107.133 8.28074C106.835 8.09407 106.326 7.94941 105.607 7.84674C104.562 7.69741 103.825 7.47341 103.395 7.17474C102.975 6.86674 102.765 6.45607 102.765 5.94274C102.765 5.52274 102.887 5.15874 103.129 4.85074C103.372 4.53341 103.708 4.29074 104.137 4.12274C104.567 3.94541 105.057 3.85674 105.607 3.85674C106.223 3.85674 106.774 3.96874 107.259 4.19274C107.745 4.41674 108.174 4.73407 108.547 5.14474L107.819 5.84474C107.539 5.49941 107.217 5.22874 106.853 5.03274C106.489 4.83674 106.074 4.73874 105.607 4.73874C105.094 4.73874 104.669 4.84607 104.333 5.06074C103.997 5.27541 103.829 5.56007 103.829 5.91474C103.829 6.17607 103.969 6.38607 104.249 6.54474C104.539 6.69407 105.024 6.81541 105.705 6.90874C106.788 7.05807 107.549 7.30074 107.987 7.63674C108.435 7.96341 108.659 8.42074 108.659 9.00874C108.659 9.43807 108.529 9.82074 108.267 10.1567C108.015 10.4834 107.665 10.7401 107.217 10.9267C106.769 11.1041 106.256 11.1927 105.677 11.1927C105.005 11.1927 104.403 11.0807 103.871 10.8567C103.349 10.6234 102.877 10.3061 102.457 9.90474Z" fill="white"/>
<path fill-rule="evenodd" clip-rule="evenodd" d="M0.423828 0.964683C1.59762 0.853041 2.3481 1.34613 2.63806 2.43619C3.05982 4.01623 3.45832 5.59938 3.86767 7.18252C3.90179 7.31432 3.94365 7.44302 4.03669 7.57482C4.19795 6.96699 4.36076 6.35916 4.52202 5.75133C4.75461 4.8706 4.98254 3.98832 5.22443 3.11069C5.28956 2.8719 5.39034 2.64551 5.48183 2.41603C5.96561 1.21743 7.38594 1.24224 8.11007 1.6702C8.61866 1.97101 8.81093 2.52147 8.95824 3.05952C9.33968 4.44264 9.69476 5.83506 10.0591 7.22284C10.0902 7.33448 10.1274 7.44767 10.2204 7.56086C10.3801 6.94993 10.5429 6.34055 10.7011 5.72807C10.9848 4.63491 11.2655 3.54175 11.5477 2.44859C11.8253 1.37404 12.599 0.845288 13.7635 0.969335C13.7108 1.19572 13.6674 1.42366 13.6069 1.64539C12.8533 4.49846 12.0966 7.35153 11.3415 10.2031C11.3136 10.3085 11.2702 10.4124 11.2609 10.5194C11.2345 10.8605 11.05 10.9551 10.7259 10.9458C9.99247 10.9225 9.15981 10.6 8.90707 9.68826C8.62486 8.66798 8.35661 7.64459 8.09301 6.61811C7.86352 5.72497 7.65885 4.82874 7.42471 3.93715C7.37664 3.75418 7.37354 3.47508 7.08513 3.48593C6.82618 3.49678 6.81998 3.74953 6.77346 3.9325C6.35326 5.61333 5.94235 7.29726 5.52214 8.9781C5.45547 9.24635 5.35778 9.50839 5.26475 9.76889C4.93913 10.6729 4.06305 10.9908 3.29551 10.9365C3.12339 10.9241 3.02726 10.8621 2.98074 10.6884C2.14187 7.49884 1.29991 4.31084 0.457941 1.12439C0.445536 1.07632 0.437783 1.02981 0.423828 0.964683" fill="#2C2B36"/>
<path fill-rule="evenodd" clip-rule="evenodd" d="M26.1014 10.9058C24.9928 11.0345 24.0888 10.8035 23.4468 9.87931C22.932 9.13813 22.4017 8.4078 21.8823 7.66972C21.6621 7.35651 21.5024 7.35806 21.2807 7.66972C20.7069 8.48068 20.1394 9.29319 19.5471 10.0886C18.9315 10.9166 18.0523 10.9973 17.0615 10.9073C17.1406 10.7817 17.1949 10.6949 17.2522 10.6112C18.2431 9.13658 19.2308 7.66197 20.2294 6.19512C20.3519 6.0168 20.341 5.89586 20.2263 5.72529C19.2292 4.25534 18.2415 2.78229 17.2507 1.30923C17.1902 1.2193 17.1344 1.12782 17.0739 1.03478C17.6383 0.808396 18.8649 0.991364 19.2385 1.49996C19.9161 2.4148 20.6015 3.32499 21.2745 4.24449C21.5055 4.56081 21.6621 4.55926 21.8978 4.23518C22.5304 3.36221 23.1708 2.49078 23.8128 1.624C24.1818 1.12316 24.7214 0.982061 25.3029 0.946397C25.5541 0.930892 25.8084 0.943296 26.1278 0.943296C26.044 1.08905 26.0099 1.15573 25.9696 1.21775C24.9648 2.71871 23.9647 4.21968 22.9506 5.71444C22.8266 5.89896 22.825 6.02301 22.9506 6.20908C23.9322 7.65112 24.9013 9.10401 25.8735 10.5523C25.9417 10.6561 26.0084 10.7616 26.1014 10.9058" fill="#2C2B36"/>
<path fill-rule="evenodd" clip-rule="evenodd" d="M16.1907 2.72583C16.1907 2.73979 16.2 2.78475 16.2 2.83127C16.1969 5.06256 16.1907 7.2923 16.1891 9.52514C16.1891 10.5904 15.541 10.9315 14.6432 10.9377C14.454 10.9393 14.4106 10.8602 14.4121 10.6881C14.4153 8.51571 14.4137 6.34489 14.4137 4.17407C14.4137 3.84535 14.5564 3.60656 14.8463 3.4515C15.2882 3.21581 15.7286 2.97547 16.1907 2.72583" fill="#2C2B36"/>
<path fill-rule="evenodd" clip-rule="evenodd" d="M16.1801 0.967676C16.2995 1.8422 15.9103 2.37871 15.1241 2.67642C14.8885 2.7648 14.6729 2.90745 14.4481 3.0253C14.3706 1.60807 14.7737 0.893248 16.1801 0.967676" fill="#2C2B36"/>
<path fill-rule="evenodd" clip-rule="evenodd" d="M0.423828 0.964683C1.59762 0.853041 2.3481 1.34613 2.63806 2.43619C3.05982 4.01623 3.45832 5.59938 3.86767 7.18252C3.90179 7.31432 3.94365 7.44302 4.03669 7.57482C4.19795 6.96699 4.36076 6.35916 4.52202 5.75133C4.75461 4.8706 4.98254 3.98832 5.22443 3.11069C5.28956 2.8719 5.39034 2.64551 5.48183 2.41603C5.96561 1.21743 7.38594 1.24224 8.11007 1.6702C8.61866 1.97101 8.81093 2.52147 8.95824 3.05952C9.33968 4.44264 9.69476 5.83506 10.0591 7.22284C10.0902 7.33448 10.1274 7.44767 10.2204 7.56086C10.3801 6.94993 10.5429 6.34055 10.7011 5.72807C10.9848 4.63491 11.2655 3.54175 11.5477 2.44859C11.8253 1.37404 12.599 0.845288 13.7635 0.969335C13.7108 1.19572 13.6674 1.42366 13.6069 1.64539C12.8533 4.49846 12.0966 7.35153 11.3415 10.2031C11.3136 10.3085 11.2702 10.4124 11.2609 10.5194C11.2345 10.8605 11.05 10.9551 10.7259 10.9458C9.99247 10.9225 9.15981 10.6 8.90707 9.68826C8.62486 8.66798 8.35661 7.64459 8.09301 6.61811C7.86352 5.72497 7.65885 4.82874 7.42471 3.93715C7.37664 3.75418 7.37354 3.47508 7.08513 3.48593C6.82618 3.49678 6.81998 3.74953 6.77346 3.9325C6.35326 5.61333 5.94235 7.29726 5.52214 8.9781C5.45547 9.24635 5.35778 9.50839 5.26475 9.76889C4.93913 10.6729 4.06305 10.9908 3.29551 10.9365C3.12339 10.9241 3.02726 10.8621 2.98074 10.6884C2.14187 7.49884 1.29991 4.31084 0.457941 1.12439C0.445536 1.07632 0.437783 1.02981 0.423828 0.964683" fill="white"/>
<path fill-rule="evenodd" clip-rule="evenodd" d="M26.1014 10.9058C24.9928 11.0345 24.0888 10.8035 23.4468 9.87931C22.932 9.13813 22.4017 8.4078 21.8823 7.66972C21.6621 7.35651 21.5024 7.35806 21.2807 7.66972C20.7069 8.48068 20.1394 9.29319 19.5471 10.0886C18.9315 10.9166 18.0523 10.9973 17.0615 10.9073C17.1406 10.7817 17.1949 10.6949 17.2522 10.6112C18.2431 9.13658 19.2308 7.66197 20.2294 6.19512C20.3519 6.0168 20.341 5.89586 20.2263 5.72529C19.2292 4.25534 18.2415 2.78229 17.2507 1.30923C17.1902 1.2193 17.1344 1.12782 17.0739 1.03478C17.6383 0.808396 18.8649 0.991364 19.2385 1.49996C19.9161 2.4148 20.6015 3.32499 21.2745 4.24449C21.5055 4.56081 21.6621 4.55926 21.8978 4.23518C22.5304 3.36221 23.1708 2.49078 23.8128 1.624C24.1818 1.12316 24.7214 0.982061 25.3029 0.946397C25.5541 0.930892 25.8084 0.943296 26.1278 0.943296C26.044 1.08905 26.0099 1.15573 25.9696 1.21775C24.9648 2.71871 23.9647 4.21968 22.9506 5.71444C22.8266 5.89896 22.825 6.02301 22.9506 6.20908C23.9322 7.65112 24.9013 9.10401 25.8735 10.5523C25.9417 10.6561 26.0084 10.7616 26.1014 10.9058" fill="white"/>
<path fill-rule="evenodd" clip-rule="evenodd" d="M16.1907 2.72583C16.1907 2.73979 16.2 2.78475 16.2 2.83127C16.1969 5.06256 16.1907 7.2923 16.1891 9.52514C16.1891 10.5904 15.541 10.9315 14.6432 10.9377C14.454 10.9393 14.4106 10.8602 14.4121 10.6881C14.4153 8.51571 14.4137 6.34489 14.4137 4.17407C14.4137 3.84535 14.5564 3.60656 14.8463 3.4515C15.2882 3.21581 15.7286 2.97547 16.1907 2.72583" fill="white"/>
<path fill-rule="evenodd" clip-rule="evenodd" d="M16.1801 0.967676C16.2995 1.8422 15.9103 2.37871 15.1241 2.67642C14.8885 2.7648 14.6729 2.90745 14.4481 3.0253C14.3706 1.60807 14.7737 0.893248 16.1801 0.967676" fill="white"/>
</svg>
